<svg width="36px" height="33px" viewBox="0 0 36 33" version="1.1" xmlns="http://www.w3.org/2000/svg" xmlns:xlink="http://www.w3.org/1999/xlink">
    <defs></defs>
    <g id="Page-1" stroke="none" stroke-width="1" fill="none" fill-rule="evenodd">
        <g id="Group-2">
            <g id="Group-11" transform="translate(2.000000, 0.000000)" stroke="#FFFFFF" stroke-linecap="square" stroke-width="2">
                <path d="M0,1 L32,1" id="Line-2"></path>
                <path d="M0,9 L32,9" id="Line-2"></path>
                <path d="M0,17 L32,17" id="Line-2"></path>
            </g>
            <path d="M8.62060547,32 L7.71826172,32 L7.71826172,26.0810547 L7.65380859,26.0810547 L5.20996094,31.9462891 L4.39355469,31.9462891 L1.94970703,26.0810547 L1.88525391,26.0810547 L1.88525391,32 L0.982910156,32 L0.982910156,24.2495117 L2.10546875,24.2495117 L4.75878906,30.6625977 L4.84472656,30.6625977 L7.49804688,24.2495117 L8.62060547,24.2495117 L8.62060547,32 Z M16.7133789,31.1298828 L16.7133789,32 L11.9116211,32 L11.9116211,24.2495117 L16.7133789,24.2495117 L16.7133789,25.1196289 L12.878418,25.1196289 L12.878418,27.6064453 L16.5146484,27.6064453 L16.5146484,28.4658203 L12.878418,28.4658203 L12.878418,31.1298828 L16.7133789,31.1298828 Z M20.7348633,32 L19.7788086,32 L19.7788086,24.2495117 L20.71875,24.2495117 L24.9243164,30.28125 L25.0102539,30.28125 L25.0102539,24.2495117 L25.9663086,24.2495117 L25.9663086,32 L25.0263672,32 L20.8208008,25.9897461 L20.7348633,25.9897461 L20.7348633,32 Z M30.2509766,24.2495117 C30.2509766,24.2495117 30.2509766,24.4186995 30.2509766,24.7570801 C30.2509766,25.0954607 30.2509766,25.5135066 30.2509766,26.0112305 C30.2509766,26.5089543 30.2509766,27.0075659 30.2509766,27.5070801 C30.2509766,28.0065943 30.2509766,28.4255354 30.2509766,28.763916 C30.2509766,29.1022966 30.2509766,29.2714844 30.2509766,29.2714844 C30.2509766,29.8551461 30.4353823,30.3376446 30.8041992,30.7189941 C31.1730162,31.1003437 31.6922167,31.2910156 32.3618164,31.2910156 C33.0349969,31.2910156 33.5550926,31.1003437 33.9221191,30.7189941 C34.2891457,30.3376446 34.4726562,29.8551461 34.4726562,29.2714844 L34.4726562,24.2495117 L35.4394531,24.2495117 L35.4394531,29.3359375 C35.4394531,30.1630901 35.1673204,30.844317 34.6230469,31.3796387 C34.0787733,31.9149604 33.3250374,32.1826172 32.3618164,32.1826172 C31.4021762,32.1826172 30.6493354,31.9149604 30.1032715,31.3796387 C29.5572076,30.844317 29.2841797,30.1630901 29.2841797,29.3359375 L29.2841797,24.2495117 L30.2509766,24.2495117 Z" id="menu" fill="#FFFFFF" transform="translate(18.211182, 28.216064) rotate(-360.000000) translate(-18.211182, -28.216064) "></path>
        </g>
    </g>
</svg>